PathFileType	4	(X/Y/Z)	Patient4_TMGait_0pt5_02_left_08.trc.trc
DataRate	CameraRate	NumFrames	NumMarkers	Units	OrigDataRate	OrigDataStartFrame	OrigNumFrames
78.212290502793	78.212290502793	4	33	mm	78.212290502793	106	       141
Frame#	Time	Sacral			L.Shoulder			Chest			R.Shoulder			Neck			R.ASIS			L.ASIS			R.Thigh.Superior			R.Thigh.Lateral			R.Thigh.Inferior			R.Patella			L.Thigh.Superior			L.Thigh.Lateral			L.Thigh.Inferior			L.Patella			L.Shank.Superior			L.Shank.Lateral			L.Shank.Inferior			R.Shank.Superior			R.Shank.Lateral			R.Shank.Inferior			R.Heel			R.Midfoot.Superior			R.Midfoot.Lateral			R.Toe			L.Heel			L.Midfoot.Lateral			L.Midfoot.Superior			L.Toe			L.Elbow			L.Wrist			R.Elbow			R.Wrist			
		X1	Y1	Z1	X2	Y2	Z2	X3	Y3	Z3	X4	Y4	Z4	X5	Y5	Z5	X6	Y6	Z6	X7	Y7	Z7	X8	Y8	Z8	X9	Y9	Z9	X10	Y10	Z10	X11	Y11	Z11	X12	Y12	Z12	X13	Y13	Z13	X14	Y14	Z14	X15	Y15	Z15	X16	Y16	Z16	X17	Y17	Z17	X18	Y18	Z18	X19	Y19	Z19	X20	Y20	Z20	X21	Y21	Z21	X22	Y22	Z22	X23	Y23	Z23	X24	Y24	Z24	X25	Y25	Z25	X26	Y26	Z26	X27	Y27	Z27	X28	Y28	Z28	X29	Y29	Z29	X30	Y30	Z30	X31	Y31	Z31	X32	Y32	Z32	X33	Y33	Z33	

106	11.162500000000	573.008042152749	1015.061629253116	544.761038591921	760.733621553567	1442.411122812825	375.027220625297	865.351903877686	1363.337446991159	529.993037865471	791.624182874789	1434.091418233318	709.994423140831	765.827459805513	1497.634039156415	529.340409912761	799.896053419946	942.079712066217	656.323006474958	781.721483674522	965.974621180372	383.433109136839	827.412276424631	738.534300194586	624.508276476597	740.106125773519	634.441469725330	682.402935905105	813.252741034042	578.576974452389	601.288897725307	807.928011390009	491.081885297546	605.543399257988	860.256526698578	783.660314179935	406.112419993460	815.339875308850	659.836374013969	324.088542197671	916.967090001411	597.021425922566	384.205831130829	937.982789223832	518.038684764231	376.677987781744	897.502136940842	443.515214049431	364.716851368065	788.211329389527	351.811936401249	305.825507911955	826.021782391488	226.059552552688	359.154250510252	778.348650324610	404.126421189063	610.308152105720	702.649075990662	301.529516979697	666.954028660101	743.858879515087	206.922006856053	603.351682928113	604.516980742693	44.461086688777	566.490437445094	776.882300070036	97.352854943041	606.037834914075	686.731920411418	36.856568197101	642.402760977232	895.285235055819	40.657159735392	635.086215086977	677.085240671672	86.957950349783	385.462865060244	749.710091981385	76.161579196197	305.503726861966	841.218434065674	124.395222515230	332.564041060630	958.209611735711	57.802442045980	301.794474363756	705.364195304937	1092.257545309132	253.594933440082	770.062299170818	839.395320274843	233.263739437327	841.445621882289	1098.685173094126	843.698293668913	1056.413982690908	953.275100322855	834.973789545457	
107	11.175285714286	572.042832974934	1015.016767584474	545.582263469595	759.242712384935	1442.290041055395	375.388647800330	865.010132532803	1362.645123082951	529.273177861194	792.917513658761	1433.097231481664	710.093512580494	765.603197974353	1497.081769961016	529.857395135880	799.497079572461	941.351693708154	655.409451518447	779.653114070020	965.550704376074	382.722998238455	824.615711194974	737.385932465205	623.059894610011	737.053397949904	633.907136455008	682.129090216134	808.806682568781	577.463240149648	600.342825005256	802.731854159567	490.223736053486	604.751105218237	857.539894415990	783.037520370274	405.682764816104	812.988957631658	659.521272989790	323.137962012710	913.842228025294	596.528683029705	384.347592718465	936.235159801572	519.694621327639	376.612372450862	899.787403664395	445.286066419959	363.948757429113	797.134436098556	347.022292869807	304.037316919523	842.651730417588	223.671176300158	357.592205924084	772.966414704009	403.337867589329	609.761690491243	697.148643071210	301.007671434863	666.758233487334	737.652651495937	206.277594897986	602.945942246859	597.940318129663	44.008098980191	566.496595776823	770.108649890059	97.185279589135	605.850596700957	680.121888361692	36.701409050988	642.479566073546	888.710600068782	40.848085327832	635.047227630744	702.914025287491	75.205018589015	383.003435448818	776.729741815448	69.015938309676	303.534923173756	864.806781166888	122.933527974477	331.133436920386	986.036259715626	63.842484487091	301.257832867819	698.034010409191	1093.471297683617	253.145227586294	756.616570987607	839.429706347255	231.188548599016	847.279890956572	1099.152462396761	844.220384670015	1067.986508770758	963.157427085452	832.773566043057	
108	11.188071428571	571.118430385511	1014.898201732471	546.290899988603	757.857629103607	1442.073078082592	375.546508752915	864.725361270709	1361.871669563736	528.383758423517	794.212434365341	1432.039924837954	709.982790526741	765.487580551450	1496.468281145209	530.155762101014	799.127775457024	940.633489049939	654.422288322049	777.625934956577	964.965213892625	381.889295887440	822.108158847423	736.297872354030	621.780889920693	734.268639457564	633.372772109542	681.824193716839	804.744102113335	576.395995279901	599.480556570399	797.918102487510	489.370937688447	604.008214451403	854.534134778132	782.048156403637	405.286051919964	810.313548986629	659.010682982172	322.058354323158	910.309526677624	595.702979884716	384.458856882386	934.000037036465	521.075357304394	376.557992374145	901.527093766273	447.073106037376	363.234433079815	805.870104119342	342.671221046894	302.357157579461	858.791114067268	222.247571975278	356.331122007770	767.894531644727	402.558715972529	609.229301073945	691.920707622246	300.537388527610	666.602171339971	731.604219447854	205.666454530891	602.562970792574	591.389277081525	43.657669653780	566.521853036892	763.378277123809	97.021623183911	605.667284304557	673.548741524063	36.576207421432	642.558583466904	882.164279674775	40.991612476640	635.010448020733	728.595803150113	65.257472895566	380.938997180525	803.484466998576	63.360203335295	302.101411880715	887.852563159628	122.662607181730	330.194277511708	1012.808868101470	70.973956735142	301.591167644448	690.667690458703	1094.638193338946	252.763763331284	743.620480422709	839.653963497284	229.271729779794	852.563009571568	1099.434175979308	844.320928519022	1078.620353938245	973.281094849983	829.916302108487	
109	11.200857142857	570.246524785954	1014.738910369454	546.885684772462	756.599570310436	1441.791322640784	375.482179588857	864.496356262262	1361.064548750928	527.327570861648	795.485007577078	1430.986107583624	709.644417469158	765.479128171151	1495.836007731613	530.203988925474	798.798558579539	939.960042364970	653.379356899317	775.650309325312	964.288153291564	380.953777323537	819.927080541462	735.290269946075	620.676710537925	731.750810393469	632.861356664599	681.465235227400	801.076598007448	575.384979830567	598.701275207334	793.488442990548	488.537100668292	603.300434757456	851.314863679003	780.807361153999	404.893815258268	807.407328755526	658.387959817301	320.867264894412	906.535172933715	594.675137802861	384.469637933033	931.413918125714	522.258530420454	376.471629363983	902.782751406107	448.897278628972	362.552094659533	814.266327377391	338.872512799966	300.857221729679	874.190729247367	221.809336455984	355.379137862805	763.128600982162	401.809321665725	608.699665120926	686.952217955912	300.145613102019	666.469908839145	725.719129155733	205.111582574911	602.203710221960	584.867646169590	43.421750171542	566.563359020437	756.704269170345	96.868525689204	605.493047491650	667.017279670134	36.486145698850	642.635506510507	875.650313891072	41.079703111673	634.979280937664	753.640884903197	57.260406918835	379.390643517549	829.466890085415	59.225719527267	301.265214701974	909.981169865013	123.529206424010	329.721709306091	1038.122452266950	78.968053183351	302.680945238323	683.352592274711	1095.775064617923	252.461810438001	731.096798988809	840.032042445920	227.530160959546	857.325897926723	1099.562297222605	843.960357735567	1088.279987593701	983.629695613154	826.389713555167	
